# xmcd
#
# Track frame offsets: 
#        150
#        14082
#        37954
#        73980
#        104431
#        123876
#        160635
#        169408
#        188065
#        213686
#        235547
#        249301
#
# Disc length: 3681 seconds
#
# Revision: 0
# Processed by: cddbd v1.5.2PL0 Copyright (c) Steve Scherf et al.
# Submitted via: ExactAudioCopyFreeDBPlugin 1.0
#
DISCID=a20e5f0c
DTITLE=Jason Elmore and Hoodoo Witch - Tell You What
DYEAR=2013
DGENRE=Blues
TTITLE0=Sharecropper Shuffle
TTITLE1=Southbound
TTITLE2=Cold Lonely Dawn
TTITLE3=When The Sun Goes Down
TTITLE4=Bottom Feeder
TTITLE5=Dirt Ain't Enough
TTITLE6=Buckaroo
TTITLE7=Country Mile
TTITLE8=Don't Pass Me By
TTITLE9=Good Foot
TTITLE10=She Fine
TTITLE11=You Don't Miss Your Water
EXTD=
EXTT0=
EXTT1=
EXTT2=
EXTT3=
EXTT4=
EXTT5=
EXTT6=
EXTT7=
EXTT8=
EXTT9=
EXTT10=
EXTT11=
PLAYORDER=
